<svg height="200" viewBox="0 0 1024 1024" width="200" xmlns="http://www.w3.org/2000/svg"><path d="m1001.526404 991.699618c-1.603633-4.877239-1.603633-4.877239-2.864663-7.168175-1.105408-1.983505-2.367902-3.8065-3.959416-5.877894-2.20225-2.866285-5.278617-6.484414-9.343848-11.033986-7.134596-7.98463-17.534447-19.073489-31.316207-33.434053-21.546697-22.451609-43.132642-44.501258-95.562411-97.793512-51.91795-52.772013-73.697837-75.021596-95.054214-97.278535-13.389903-13.95453-23.439441-24.671946-30.093752-32.120096-3.304593-3.698822-5.679503-6.491786-6.966291-8.165045.856634 1.610547.856634 1.610547 2.211418 5.590468 2.108879 7.494693 2.108879 7.494693-6.966863 24.755228 82.243439-79.257958 129.721293-189.186967 129.721293-306.774244 0-233.284954-185.801406-422.399774-414.999057-422.399774-229.197652 0-414.99906 189.11482-414.99906 422.399774 0 233.284953 185.801408 422.399774 414.99906 422.399774 5.024313 0 10.223886-.235388 16.01549-.681878 4.139119-.319095 7.731844-.663515 14.303786-1.340866 13.307237-1.371535 18.153178-1.762235 23.745703-1.762246 9.499025-.000017 24.567291-3.367629 46.992778-9.584892 2.631028-.729427 5.329396-1.490961 8.086281-2.281263 8.500136-2.436691 17.191334-5.039932 25.620753-7.642605 5.063042-1.56327 8.929252-2.783884 11.136041-3.492567 13.247054-4.254123 20.597687-18.633137 16.418101-32.116427-4.179588-13.483289-18.306673-20.965009-31.553728-16.710884-2.038863.654754-5.730185 1.820154-10.602773 3.324619-8.129967 2.510216-16.508709 5.019865-24.655292 7.355206-2.621871.751597-5.181762 1.47405-7.669421 2.163731-17.233636 4.777869-30.68941 7.785103-33.772834 7.78511-7.938562.000015-13.67673.462649-28.813425 2.022743-6.167802.635695-9.443025.949679-13.03513 1.226603-4.614999.355782-8.588019.535643-12.21633.535643-201.416118 0-364.696143-166.191812-364.696143-371.199801s163.280025-371.199801 364.696143-371.199801c201.416117 0 364.69614 166.191812 364.69614 371.199801 0 103.375669-41.69245 199.909303-114.003279 269.595213-9.255336 17.568042-9.255336 17.568042-7.048486 25.632083 1.589333 4.678112 1.589333 4.678112 2.832179 6.923228 1.101284 1.961359 2.361272 3.776394 3.945474 5.836394 2.209927 2.873651 5.292928 6.499352 9.361133 11.052883 7.14592 7.998407 17.548986 19.092843 31.32288 33.447559 21.562891 22.47216 43.408256 44.788631 95.477877 97.714812 52.277967 53.137954 73.800568 75.122897 95.141622 97.360228 13.397506 13.960173 23.444079 24.67235 30.086536 32.106204 3.296058 3.688757 5.660749 6.469881 6.93295 8.125683-.938366-1.752354-.938366-1.752354-2.319309-5.944239-2.071657-8.077129-2.071657-8.077129 8.092424-25.400079-10.607844 9.128045-11.937105 25.280493-2.968992 36.077508 8.968113 10.797014 24.837562 12.14998 35.445406 3.021937 10.356805-17.61635 10.356805-17.61635 8.199456-26.24957z" fill="#82ab74"/></svg>